<mxfile host="Electron" modified="2024-01-07T12:18:39.025Z" agent="Mozilla/5.0 (Windows NT 10.0; Win64; x64) AppleWebKit/537.36 (KHTML, like Gecko) draw.io/22.0.2 Chrome/114.0.5735.289 Electron/25.8.4 Safari/537.36" etag="SHd27luOJw1FB5Uyob6M" version="22.0.2" type="device">
  <diagram name="Page-1" id="c4acf3e9-155e-7222-9cf6-157b1a14988f">
    <mxGraphModel dx="682" dy="472" grid="1" gridSize="10" guides="1" tooltips="1" connect="1" arrows="1" fold="1" page="1" pageScale="1" pageWidth="1654" pageHeight="1169" background="none" math="0" shadow="0">
      <root>
        <mxCell id="0" />
        <mxCell id="1" parent="0" />
        <mxCell id="4OcTNK0Lde0b92UtZU0g-4" value="ShopFloor" style="swimlane;fontStyle=1;align=center;verticalAlign=top;childLayout=stackLayout;horizontal=1;startSize=26;horizontalStack=0;resizeParent=1;resizeParentMax=0;resizeLast=0;collapsible=1;marginBottom=0;whiteSpace=wrap;html=1;" parent="1" vertex="1">
          <mxGeometry x="610" y="350" width="230" height="180" as="geometry" />
        </mxCell>
        <mxCell id="4OcTNK0Lde0b92UtZU0g-5" value="+ machines: tuple[machine]&lt;br&gt;- generatingWarehouse: WareHouse" style="text;strokeColor=none;fillColor=none;align=left;verticalAlign=top;spacingLeft=4;spacingRight=4;overflow=hidden;rotatable=0;points=[[0,0.5],[1,0.5]];portConstraint=eastwest;whiteSpace=wrap;html=1;" parent="4OcTNK0Lde0b92UtZU0g-4" vertex="1">
          <mxGeometry y="26" width="230" height="64" as="geometry" />
        </mxCell>
        <mxCell id="4OcTNK0Lde0b92UtZU0g-6" value="" style="line;strokeWidth=1;fillColor=none;align=left;verticalAlign=middle;spacingTop=-1;spacingLeft=3;spacingRight=3;rotatable=0;labelPosition=right;points=[];portConstraint=eastwest;strokeColor=inherit;" parent="4OcTNK0Lde0b92UtZU0g-4" vertex="1">
          <mxGeometry y="90" width="230" height="8" as="geometry" />
        </mxCell>
        <mxCell id="4OcTNK0Lde0b92UtZU0g-7" value="+ file2environment(filename:str): list&lt;br&gt;- init_shopfloor(None): None&lt;br&gt;+ reset(None): None" style="text;strokeColor=none;fillColor=none;align=left;verticalAlign=top;spacingLeft=4;spacingRight=4;overflow=hidden;rotatable=0;points=[[0,0.5],[1,0.5]];portConstraint=eastwest;whiteSpace=wrap;html=1;" parent="4OcTNK0Lde0b92UtZU0g-4" vertex="1">
          <mxGeometry y="98" width="230" height="82" as="geometry" />
        </mxCell>
        <mxCell id="4OcTNK0Lde0b92UtZU0g-16" value="TimeController" style="swimlane;fontStyle=1;align=center;verticalAlign=top;childLayout=stackLayout;horizontal=1;startSize=26;horizontalStack=0;resizeParent=1;resizeParentMax=0;resizeLast=0;collapsible=1;marginBottom=0;whiteSpace=wrap;html=1;" parent="1" vertex="1">
          <mxGeometry x="980" y="200" width="160" height="104" as="geometry">
            <mxRectangle x="980" y="369" width="130" height="30" as="alternateBounds" />
          </mxGeometry>
        </mxCell>
        <mxCell id="4OcTNK0Lde0b92UtZU0g-17" value="+ time: int" style="text;strokeColor=none;fillColor=none;align=left;verticalAlign=top;spacingLeft=4;spacingRight=4;overflow=hidden;rotatable=0;points=[[0,0.5],[1,0.5]];portConstraint=eastwest;whiteSpace=wrap;html=1;" parent="4OcTNK0Lde0b92UtZU0g-16" vertex="1">
          <mxGeometry y="26" width="160" height="44" as="geometry" />
        </mxCell>
        <mxCell id="4OcTNK0Lde0b92UtZU0g-18" value="" style="line;strokeWidth=1;fillColor=none;align=left;verticalAlign=middle;spacingTop=-1;spacingLeft=3;spacingRight=3;rotatable=0;labelPosition=right;points=[];portConstraint=eastwest;strokeColor=inherit;" parent="4OcTNK0Lde0b92UtZU0g-16" vertex="1">
          <mxGeometry y="70" width="160" height="8" as="geometry" />
        </mxCell>
        <mxCell id="4OcTNK0Lde0b92UtZU0g-19" value="+ tickTick(None): None" style="text;strokeColor=none;fillColor=none;align=left;verticalAlign=top;spacingLeft=4;spacingRight=4;overflow=hidden;rotatable=0;points=[[0,0.5],[1,0.5]];portConstraint=eastwest;whiteSpace=wrap;html=1;" parent="4OcTNK0Lde0b92UtZU0g-16" vertex="1">
          <mxGeometry y="78" width="160" height="26" as="geometry" />
        </mxCell>
        <mxCell id="4OcTNK0Lde0b92UtZU0g-20" value="Machine" style="swimlane;fontStyle=1;align=center;verticalAlign=top;childLayout=stackLayout;horizontal=1;startSize=26;horizontalStack=0;resizeParent=1;resizeParentMax=0;resizeLast=0;collapsible=1;marginBottom=0;whiteSpace=wrap;html=1;" parent="1" vertex="1">
          <mxGeometry x="645" y="630" width="160" height="104" as="geometry" />
        </mxCell>
        <mxCell id="4OcTNK0Lde0b92UtZU0g-21" value="+ machine_id: int&lt;br&gt;+ pre_buffer:&amp;nbsp; PartBuffer" style="text;strokeColor=none;fillColor=none;align=left;verticalAlign=top;spacingLeft=4;spacingRight=4;overflow=hidden;rotatable=0;points=[[0,0.5],[1,0.5]];portConstraint=eastwest;whiteSpace=wrap;html=1;" parent="4OcTNK0Lde0b92UtZU0g-20" vertex="1">
          <mxGeometry y="26" width="160" height="44" as="geometry" />
        </mxCell>
        <mxCell id="4OcTNK0Lde0b92UtZU0g-22" value="" style="line;strokeWidth=1;fillColor=none;align=left;verticalAlign=middle;spacingTop=-1;spacingLeft=3;spacingRight=3;rotatable=0;labelPosition=right;points=[];portConstraint=eastwest;strokeColor=inherit;" parent="4OcTNK0Lde0b92UtZU0g-20" vertex="1">
          <mxGeometry y="70" width="160" height="8" as="geometry" />
        </mxCell>
        <mxCell id="4OcTNK0Lde0b92UtZU0g-23" value="+ process(None): None" style="text;strokeColor=none;fillColor=none;align=left;verticalAlign=top;spacingLeft=4;spacingRight=4;overflow=hidden;rotatable=0;points=[[0,0.5],[1,0.5]];portConstraint=eastwest;whiteSpace=wrap;html=1;" parent="4OcTNK0Lde0b92UtZU0g-20" vertex="1">
          <mxGeometry y="78" width="160" height="26" as="geometry" />
        </mxCell>
        <mxCell id="4OcTNK0Lde0b92UtZU0g-28" value="" style="endArrow=diamondThin;endFill=0;endSize=24;html=1;rounded=0;edgeStyle=orthogonalEdgeStyle;" parent="1" source="4OcTNK0Lde0b92UtZU0g-20" target="4OcTNK0Lde0b92UtZU0g-4" edge="1">
          <mxGeometry width="160" relative="1" as="geometry">
            <mxPoint x="390" y="570" as="sourcePoint" />
            <mxPoint x="570" y="580" as="targetPoint" />
          </mxGeometry>
        </mxCell>
        <mxCell id="4OcTNK0Lde0b92UtZU0g-34" value="Part" style="swimlane;fontStyle=1;align=center;verticalAlign=top;childLayout=stackLayout;horizontal=1;startSize=26;horizontalStack=0;resizeParent=1;resizeParentMax=0;resizeLast=0;collapsible=1;marginBottom=0;whiteSpace=wrap;html=1;" parent="1" vertex="1">
          <mxGeometry x="220" y="360" width="220" height="160" as="geometry" />
        </mxCell>
        <mxCell id="4OcTNK0Lde0b92UtZU0g-35" value="# ({machine1:machine_time1, ...},...)&lt;br&gt;+ processes_tuple: tuple[int]&lt;br&gt;+ processes_index: int == 0&lt;br&gt;+ due_time: int" style="text;strokeColor=none;fillColor=none;align=left;verticalAlign=top;spacingLeft=4;spacingRight=4;overflow=hidden;rotatable=0;points=[[0,0.5],[1,0.5]];portConstraint=eastwest;whiteSpace=wrap;html=1;" parent="4OcTNK0Lde0b92UtZU0g-34" vertex="1">
          <mxGeometry y="26" width="220" height="84" as="geometry" />
        </mxCell>
        <mxCell id="4OcTNK0Lde0b92UtZU0g-36" value="" style="line;strokeWidth=1;fillColor=none;align=left;verticalAlign=middle;spacingTop=-1;spacingLeft=3;spacingRight=3;rotatable=0;labelPosition=right;points=[];portConstraint=eastwest;strokeColor=inherit;" parent="4OcTNK0Lde0b92UtZU0g-34" vertex="1">
          <mxGeometry y="110" width="220" height="10" as="geometry" />
        </mxCell>
        <mxCell id="4OcTNK0Lde0b92UtZU0g-37" value="+ isOver(None): bool&lt;br&gt;+ process(None): None" style="text;strokeColor=none;fillColor=none;align=left;verticalAlign=top;spacingLeft=4;spacingRight=4;overflow=hidden;rotatable=0;points=[[0,0.5],[1,0.5]];portConstraint=eastwest;whiteSpace=wrap;html=1;" parent="4OcTNK0Lde0b92UtZU0g-34" vertex="1">
          <mxGeometry y="120" width="220" height="40" as="geometry" />
        </mxCell>
        <mxCell id="4OcTNK0Lde0b92UtZU0g-39" value="" style="endArrow=open;endSize=12;dashed=1;html=1;rounded=0;edgeStyle=orthogonalEdgeStyle;" parent="1" source="4OcTNK0Lde0b92UtZU0g-20" target="4OcTNK0Lde0b92UtZU0g-34" edge="1">
          <mxGeometry width="160" relative="1" as="geometry">
            <mxPoint x="550" y="560" as="sourcePoint" />
            <mxPoint x="710" y="560" as="targetPoint" />
          </mxGeometry>
        </mxCell>
        <mxCell id="4OcTNK0Lde0b92UtZU0g-40" value="Use" style="endArrow=open;endSize=12;dashed=1;html=1;rounded=0;edgeStyle=orthogonalEdgeStyle;" parent="1" source="4OcTNK0Lde0b92UtZU0g-4" target="4OcTNK0Lde0b92UtZU0g-34" edge="1">
          <mxGeometry width="160" relative="1" as="geometry">
            <mxPoint x="710" y="537" as="sourcePoint" />
            <mxPoint x="350" y="470" as="targetPoint" />
          </mxGeometry>
        </mxCell>
        <mxCell id="4OcTNK0Lde0b92UtZU0g-41" value="" style="endArrow=open;endFill=1;endSize=12;html=1;rounded=0;edgeStyle=orthogonalEdgeStyle;" parent="1" source="4OcTNK0Lde0b92UtZU0g-4" target="4OcTNK0Lde0b92UtZU0g-16" edge="1">
          <mxGeometry width="160" relative="1" as="geometry">
            <mxPoint x="870" y="330" as="sourcePoint" />
            <mxPoint x="1030" y="330" as="targetPoint" />
            <Array as="points">
              <mxPoint x="910" y="412" />
              <mxPoint x="910" y="252" />
            </Array>
          </mxGeometry>
        </mxCell>
        <mxCell id="4OcTNK0Lde0b92UtZU0g-42" value="Agent" style="swimlane;fontStyle=1;align=center;verticalAlign=top;childLayout=stackLayout;horizontal=1;startSize=26;horizontalStack=0;resizeParent=1;resizeParentMax=0;resizeLast=0;collapsible=1;marginBottom=0;whiteSpace=wrap;html=1;" parent="1" vertex="1">
          <mxGeometry x="980" y="510" width="160" height="86" as="geometry" />
        </mxCell>
        <mxCell id="4OcTNK0Lde0b92UtZU0g-43" value="+ field: type" style="text;strokeColor=none;fillColor=none;align=left;verticalAlign=top;spacingLeft=4;spacingRight=4;overflow=hidden;rotatable=0;points=[[0,0.5],[1,0.5]];portConstraint=eastwest;whiteSpace=wrap;html=1;" parent="4OcTNK0Lde0b92UtZU0g-42" vertex="1">
          <mxGeometry y="26" width="160" height="26" as="geometry" />
        </mxCell>
        <mxCell id="4OcTNK0Lde0b92UtZU0g-44" value="" style="line;strokeWidth=1;fillColor=none;align=left;verticalAlign=middle;spacingTop=-1;spacingLeft=3;spacingRight=3;rotatable=0;labelPosition=right;points=[];portConstraint=eastwest;strokeColor=inherit;" parent="4OcTNK0Lde0b92UtZU0g-42" vertex="1">
          <mxGeometry y="52" width="160" height="8" as="geometry" />
        </mxCell>
        <mxCell id="4OcTNK0Lde0b92UtZU0g-45" value="+ method(type): type" style="text;strokeColor=none;fillColor=none;align=left;verticalAlign=top;spacingLeft=4;spacingRight=4;overflow=hidden;rotatable=0;points=[[0,0.5],[1,0.5]];portConstraint=eastwest;whiteSpace=wrap;html=1;" parent="4OcTNK0Lde0b92UtZU0g-42" vertex="1">
          <mxGeometry y="60" width="160" height="26" as="geometry" />
        </mxCell>
        <mxCell id="4OcTNK0Lde0b92UtZU0g-46" value="" style="endArrow=open;endFill=1;endSize=12;html=1;rounded=0;edgeStyle=orthogonalEdgeStyle;" parent="1" source="4OcTNK0Lde0b92UtZU0g-4" target="4OcTNK0Lde0b92UtZU0g-42" edge="1">
          <mxGeometry width="160" relative="1" as="geometry">
            <mxPoint x="840" y="422" as="sourcePoint" />
            <mxPoint x="990" y="422" as="targetPoint" />
            <Array as="points">
              <mxPoint x="910" y="412" />
              <mxPoint x="910" y="560" />
            </Array>
          </mxGeometry>
        </mxCell>
        <mxCell id="4OcTNK0Lde0b92UtZU0g-47" value="WareHouse" style="swimlane;fontStyle=1;align=center;verticalAlign=top;childLayout=stackLayout;horizontal=1;startSize=26;horizontalStack=0;resizeParent=1;resizeParentMax=0;resizeLast=0;collapsible=1;marginBottom=0;whiteSpace=wrap;html=1;" parent="1" vertex="1">
          <mxGeometry x="645" y="800" width="160" height="104" as="geometry" />
        </mxCell>
        <mxCell id="4OcTNK0Lde0b92UtZU0g-48" value="- process_time: int = 0" style="text;strokeColor=none;fillColor=none;align=left;verticalAlign=top;spacingLeft=4;spacingRight=4;overflow=hidden;rotatable=0;points=[[0,0.5],[1,0.5]];portConstraint=eastwest;whiteSpace=wrap;html=1;" parent="4OcTNK0Lde0b92UtZU0g-47" vertex="1">
          <mxGeometry y="26" width="160" height="44" as="geometry" />
        </mxCell>
        <mxCell id="4OcTNK0Lde0b92UtZU0g-49" value="" style="line;strokeWidth=1;fillColor=none;align=left;verticalAlign=middle;spacingTop=-1;spacingLeft=3;spacingRight=3;rotatable=0;labelPosition=right;points=[];portConstraint=eastwest;strokeColor=inherit;" parent="4OcTNK0Lde0b92UtZU0g-47" vertex="1">
          <mxGeometry y="70" width="160" height="8" as="geometry" />
        </mxCell>
        <mxCell id="4OcTNK0Lde0b92UtZU0g-50" value="+ process(None):&amp;nbsp; None" style="text;strokeColor=none;fillColor=none;align=left;verticalAlign=top;spacingLeft=4;spacingRight=4;overflow=hidden;rotatable=0;points=[[0,0.5],[1,0.5]];portConstraint=eastwest;whiteSpace=wrap;html=1;" parent="4OcTNK0Lde0b92UtZU0g-47" vertex="1">
          <mxGeometry y="78" width="160" height="26" as="geometry" />
        </mxCell>
        <mxCell id="4OcTNK0Lde0b92UtZU0g-51" value="Extends" style="endArrow=block;endSize=16;endFill=0;html=1;rounded=0;edgeStyle=orthogonalEdgeStyle;" parent="1" source="4OcTNK0Lde0b92UtZU0g-47" target="4OcTNK0Lde0b92UtZU0g-20" edge="1">
          <mxGeometry width="160" relative="1" as="geometry">
            <mxPoint x="640" y="800" as="sourcePoint" />
            <mxPoint x="800" y="800" as="targetPoint" />
          </mxGeometry>
        </mxCell>
        <mxCell id="4OcTNK0Lde0b92UtZU0g-52" value="PartBuffer" style="swimlane;fontStyle=1;align=center;verticalAlign=top;childLayout=stackLayout;horizontal=1;startSize=26;horizontalStack=0;resizeParent=1;resizeParentMax=0;resizeLast=0;collapsible=1;marginBottom=0;whiteSpace=wrap;html=1;" parent="1" vertex="1">
          <mxGeometry x="230" y="760" width="200" height="130" as="geometry" />
        </mxCell>
        <mxCell id="4OcTNK0Lde0b92UtZU0g-53" value="+ parts: list[Part]&lt;br&gt;+ pre_buffer:&amp;nbsp; PartBuffer" style="text;strokeColor=none;fillColor=none;align=left;verticalAlign=top;spacingLeft=4;spacingRight=4;overflow=hidden;rotatable=0;points=[[0,0.5],[1,0.5]];portConstraint=eastwest;whiteSpace=wrap;html=1;" parent="4OcTNK0Lde0b92UtZU0g-52" vertex="1">
          <mxGeometry y="26" width="200" height="44" as="geometry" />
        </mxCell>
        <mxCell id="4OcTNK0Lde0b92UtZU0g-54" value="" style="line;strokeWidth=1;fillColor=none;align=left;verticalAlign=middle;spacingTop=-1;spacingLeft=3;spacingRight=3;rotatable=0;labelPosition=right;points=[];portConstraint=eastwest;strokeColor=inherit;" parent="4OcTNK0Lde0b92UtZU0g-52" vertex="1">
          <mxGeometry y="70" width="200" height="8" as="geometry" />
        </mxCell>
        <mxCell id="4OcTNK0Lde0b92UtZU0g-55" value="+ add_part(part: Part): None&lt;br&gt;+ take_part(index: int): part: Part" style="text;strokeColor=none;fillColor=none;align=left;verticalAlign=top;spacingLeft=4;spacingRight=4;overflow=hidden;rotatable=0;points=[[0,0.5],[1,0.5]];portConstraint=eastwest;whiteSpace=wrap;html=1;" parent="4OcTNK0Lde0b92UtZU0g-52" vertex="1">
          <mxGeometry y="78" width="200" height="52" as="geometry" />
        </mxCell>
        <mxCell id="4OcTNK0Lde0b92UtZU0g-56" value="" style="endArrow=open;endSize=12;dashed=1;html=1;rounded=0;edgeStyle=orthogonalEdgeStyle;" parent="1" source="4OcTNK0Lde0b92UtZU0g-20" target="4OcTNK0Lde0b92UtZU0g-52" edge="1">
          <mxGeometry x="0.1663" y="-2" width="160" relative="1" as="geometry">
            <mxPoint x="655" y="692" as="sourcePoint" />
            <mxPoint x="340" y="545" as="targetPoint" />
            <Array as="points">
              <mxPoint x="330" y="682" />
            </Array>
            <mxPoint as="offset" />
          </mxGeometry>
        </mxCell>
        <mxCell id="4OcTNK0Lde0b92UtZU0g-59" value="" style="endArrow=open;endFill=1;endSize=12;html=1;rounded=0;edgeStyle=orthogonalEdgeStyle;" parent="1" source="4OcTNK0Lde0b92UtZU0g-52" target="4OcTNK0Lde0b92UtZU0g-34" edge="1">
          <mxGeometry width="160" relative="1" as="geometry">
            <mxPoint x="850" y="422" as="sourcePoint" />
            <mxPoint x="990" y="262" as="targetPoint" />
            <Array as="points">
              <mxPoint x="150" y="810" />
              <mxPoint x="150" y="440" />
            </Array>
          </mxGeometry>
        </mxCell>
        <mxCell id="4OcTNK0Lde0b92UtZU0g-60" value="TimeController" style="shape=umlLifeline;perimeter=lifelinePerimeter;whiteSpace=wrap;html=1;container=1;dropTarget=0;collapsible=0;recursiveResize=0;outlineConnect=0;portConstraint=eastwest;newEdgeStyle={&quot;curved&quot;:0,&quot;rounded&quot;:0};fillColor=#dae8fc;strokeColor=#6c8ebf;" parent="1" vertex="1">
          <mxGeometry x="450" y="1290" width="100" height="390" as="geometry" />
        </mxCell>
        <mxCell id="4OcTNK0Lde0b92UtZU0g-64" value="" style="html=1;points=[[0,0,0,0,5],[0,1,0,0,-5],[1,0,0,0,5],[1,1,0,0,-5]];perimeter=orthogonalPerimeter;outlineConnect=0;targetShapes=umlLifeline;portConstraint=eastwest;newEdgeStyle={&quot;curved&quot;:0,&quot;rounded&quot;:0};" parent="4OcTNK0Lde0b92UtZU0g-60" vertex="1">
          <mxGeometry x="45" y="140" width="10" height="30" as="geometry" />
        </mxCell>
        <mxCell id="4OcTNK0Lde0b92UtZU0g-69" value="" style="html=1;points=[[0,0,0,0,5],[0,1,0,0,-5],[1,0,0,0,5],[1,1,0,0,-5]];perimeter=orthogonalPerimeter;outlineConnect=0;targetShapes=umlLifeline;portConstraint=eastwest;newEdgeStyle={&quot;curved&quot;:0,&quot;rounded&quot;:0};" parent="4OcTNK0Lde0b92UtZU0g-60" vertex="1">
          <mxGeometry x="45" y="90" width="10" height="40" as="geometry" />
        </mxCell>
        <mxCell id="4OcTNK0Lde0b92UtZU0g-70" value="1. TickTick" style="html=1;align=left;spacingLeft=2;endArrow=block;rounded=0;edgeStyle=orthogonalEdgeStyle;curved=0;rounded=0;" parent="4OcTNK0Lde0b92UtZU0g-60" source="4OcTNK0Lde0b92UtZU0g-69" target="4OcTNK0Lde0b92UtZU0g-69" edge="1">
          <mxGeometry x="0.008" relative="1" as="geometry">
            <mxPoint x="110" y="150" as="sourcePoint" />
            <Array as="points">
              <mxPoint x="70" y="100" />
              <mxPoint x="70" y="120" />
            </Array>
            <mxPoint as="offset" />
          </mxGeometry>
        </mxCell>
        <mxCell id="4OcTNK0Lde0b92UtZU0g-61" value="ShopFloor" style="shape=umlLifeline;perimeter=lifelinePerimeter;whiteSpace=wrap;html=1;container=1;dropTarget=0;collapsible=0;recursiveResize=0;outlineConnect=0;portConstraint=eastwest;newEdgeStyle={&quot;curved&quot;:0,&quot;rounded&quot;:0};fillColor=#dae8fc;strokeColor=#6c8ebf;" parent="1" vertex="1">
          <mxGeometry x="220" y="1290" width="100" height="390" as="geometry" />
        </mxCell>
        <mxCell id="4OcTNK0Lde0b92UtZU0g-62" value="" style="html=1;points=[[0,0,0,0,5],[0,1,0,0,-5],[1,0,0,0,5],[1,1,0,0,-5]];perimeter=orthogonalPerimeter;outlineConnect=0;targetShapes=umlLifeline;portConstraint=eastwest;newEdgeStyle={&quot;curved&quot;:0,&quot;rounded&quot;:0};" parent="4OcTNK0Lde0b92UtZU0g-61" vertex="1">
          <mxGeometry x="45" y="120" width="10" height="100" as="geometry" />
        </mxCell>
        <mxCell id="4OcTNK0Lde0b92UtZU0g-63" value="1.Run" style="html=1;verticalAlign=bottom;endArrow=block;curved=0;rounded=0;entryX=0.001;entryY=0.318;entryDx=0;entryDy=0;entryPerimeter=0;" parent="1" source="4OcTNK0Lde0b92UtZU0g-62" target="4OcTNK0Lde0b92UtZU0g-67" edge="1">
          <mxGeometry width="80" relative="1" as="geometry">
            <mxPoint x="310" y="1400" as="sourcePoint" />
            <mxPoint x="390" y="1400" as="targetPoint" />
          </mxGeometry>
        </mxCell>
        <mxCell id="4OcTNK0Lde0b92UtZU0g-65" value="Machine" style="shape=umlLifeline;perimeter=lifelinePerimeter;whiteSpace=wrap;html=1;container=1;dropTarget=0;collapsible=0;recursiveResize=0;outlineConnect=0;portConstraint=eastwest;newEdgeStyle={&quot;curved&quot;:0,&quot;rounded&quot;:0};fillColor=#dae8fc;strokeColor=#6c8ebf;" parent="1" vertex="1">
          <mxGeometry x="645" y="1290" width="100" height="390" as="geometry" />
        </mxCell>
        <mxCell id="4OcTNK0Lde0b92UtZU0g-66" value="" style="html=1;points=[[0,0,0,0,5],[0,1,0,0,-5],[1,0,0,0,5],[1,1,0,0,-5]];perimeter=orthogonalPerimeter;outlineConnect=0;targetShapes=umlLifeline;portConstraint=eastwest;newEdgeStyle={&quot;curved&quot;:0,&quot;rounded&quot;:0};" parent="4OcTNK0Lde0b92UtZU0g-65" vertex="1">
          <mxGeometry x="45" y="140" width="10" height="30" as="geometry" />
        </mxCell>
        <mxCell id="4OcTNK0Lde0b92UtZU0g-76" value="" style="html=1;points=[[0,0,0,0,5],[0,1,0,0,-5],[1,0,0,0,5],[1,1,0,0,-5]];perimeter=orthogonalPerimeter;outlineConnect=0;targetShapes=umlLifeline;portConstraint=eastwest;newEdgeStyle={&quot;curved&quot;:0,&quot;rounded&quot;:0};" parent="4OcTNK0Lde0b92UtZU0g-65" vertex="1">
          <mxGeometry x="45" y="230" width="10" height="40" as="geometry" />
        </mxCell>
        <mxCell id="4OcTNK0Lde0b92UtZU0g-77" value="4. &lt;span style=&quot;white-space: pre;&quot;&gt;&#x9;&lt;/span&gt;Check machine, &lt;br&gt;&lt;span style=&quot;white-space: pre;&quot;&gt;&#x9;&lt;/span&gt;if operate parts over,&amp;nbsp; &lt;br&gt;&lt;b&gt;&lt;span style=&quot;white-space: pre;&quot;&gt;&#x9;&lt;/span&gt;dispatch them&lt;/b&gt;" style="html=1;align=left;spacingLeft=2;endArrow=block;rounded=0;edgeStyle=orthogonalEdgeStyle;curved=0;rounded=0;" parent="4OcTNK0Lde0b92UtZU0g-65" edge="1">
          <mxGeometry y="-160" relative="1" as="geometry">
            <mxPoint x="45" y="240" as="sourcePoint" />
            <Array as="points">
              <mxPoint x="25" y="240" />
              <mxPoint x="25" y="260" />
            </Array>
            <mxPoint x="45" y="260" as="targetPoint" />
            <mxPoint as="offset" />
          </mxGeometry>
        </mxCell>
        <mxCell id="4OcTNK0Lde0b92UtZU0g-78" value="" style="html=1;points=[[0,0,0,0,5],[0,1,0,0,-5],[1,0,0,0,5],[1,1,0,0,-5]];perimeter=orthogonalPerimeter;outlineConnect=0;targetShapes=umlLifeline;portConstraint=eastwest;newEdgeStyle={&quot;curved&quot;:0,&quot;rounded&quot;:0};" parent="4OcTNK0Lde0b92UtZU0g-65" vertex="1">
          <mxGeometry x="45" y="290" width="10" height="40" as="geometry" />
        </mxCell>
        <mxCell id="4OcTNK0Lde0b92UtZU0g-79" value="5. &lt;span style=&quot;white-space: pre;&quot;&gt;&#x9;&lt;/span&gt;Check machine, &lt;br&gt;&lt;span style=&quot;white-space: pre;&quot;&gt;&#x9;&lt;/span&gt;if machine is free and &lt;br&gt;&lt;span style=&quot;white-space: pre;&quot;&gt;&#x9;&lt;/span&gt;part_buffer is not empty, &lt;br&gt;&lt;b&gt;&lt;span style=&quot;white-space: pre;&quot;&gt;&#x9;&lt;/span&gt;take part to operate&lt;/b&gt;" style="html=1;align=left;spacingLeft=2;endArrow=block;rounded=0;edgeStyle=orthogonalEdgeStyle;curved=0;rounded=0;" parent="4OcTNK0Lde0b92UtZU0g-65" edge="1">
          <mxGeometry y="-160" relative="1" as="geometry">
            <mxPoint x="45" y="300" as="sourcePoint" />
            <Array as="points">
              <mxPoint x="25" y="300" />
              <mxPoint x="25" y="320" />
            </Array>
            <mxPoint x="45" y="320" as="targetPoint" />
            <mxPoint as="offset" />
          </mxGeometry>
        </mxCell>
        <mxCell id="4OcTNK0Lde0b92UtZU0g-67" value="Loop Until Over" style="shape=umlFrame;whiteSpace=wrap;html=1;pointerEvents=0;fillColor=#d5e8d4;strokeColor=#82b366;width=90;height=30;swimlaneFillColor=none;shadow=0;" parent="1" vertex="1">
          <mxGeometry x="450" y="1340" width="490" height="330" as="geometry" />
        </mxCell>
        <mxCell id="4OcTNK0Lde0b92UtZU0g-68" value="2.Tell all machine time is change" style="html=1;verticalAlign=bottom;endArrow=block;curved=0;rounded=0;" parent="1" source="4OcTNK0Lde0b92UtZU0g-64" target="4OcTNK0Lde0b92UtZU0g-66" edge="1">
          <mxGeometry width="80" relative="1" as="geometry">
            <mxPoint x="505" y="1440" as="sourcePoint" />
            <mxPoint x="690" y="1440" as="targetPoint" />
            <Array as="points">
              <mxPoint x="600" y="1440" />
            </Array>
          </mxGeometry>
        </mxCell>
        <mxCell id="4OcTNK0Lde0b92UtZU0g-73" value="WareHouse" style="shape=umlLifeline;perimeter=lifelinePerimeter;whiteSpace=wrap;html=1;container=1;dropTarget=0;collapsible=0;recursiveResize=0;outlineConnect=0;portConstraint=eastwest;newEdgeStyle={&quot;curved&quot;:0,&quot;rounded&quot;:0};fillColor=#dae8fc;strokeColor=#6c8ebf;" parent="1" vertex="1">
          <mxGeometry x="840" y="1290" width="100" height="390" as="geometry" />
        </mxCell>
        <mxCell id="4OcTNK0Lde0b92UtZU0g-74" value="" style="html=1;points=[[0,0,0,0,5],[0,1,0,0,-5],[1,0,0,0,5],[1,1,0,0,-5]];perimeter=orthogonalPerimeter;outlineConnect=0;targetShapes=umlLifeline;portConstraint=eastwest;newEdgeStyle={&quot;curved&quot;:0,&quot;rounded&quot;:0};" parent="4OcTNK0Lde0b92UtZU0g-73" vertex="1">
          <mxGeometry x="45" y="140" width="10" height="30" as="geometry" />
        </mxCell>
        <mxCell id="4OcTNK0Lde0b92UtZU0g-71" value="" style="html=1;points=[[0,0,0,0,5],[0,1,0,0,-5],[1,0,0,0,5],[1,1,0,0,-5]];perimeter=orthogonalPerimeter;outlineConnect=0;targetShapes=umlLifeline;portConstraint=eastwest;newEdgeStyle={&quot;curved&quot;:0,&quot;rounded&quot;:0};" parent="4OcTNK0Lde0b92UtZU0g-73" vertex="1">
          <mxGeometry x="45" y="190" width="10" height="40" as="geometry" />
        </mxCell>
        <mxCell id="4OcTNK0Lde0b92UtZU0g-72" value="3. &lt;span style=&quot;white-space: pre;&quot;&gt;&#x9;&lt;/span&gt;Check orders, &lt;br&gt;&lt;span style=&quot;white-space: pre;&quot;&gt;&#x9;&lt;/span&gt;if does,&amp;nbsp; &lt;br&gt;&lt;b&gt;&lt;span style=&quot;white-space: pre;&quot;&gt;&#x9;&lt;/span&gt;dispatch them&lt;/b&gt;" style="html=1;align=left;spacingLeft=2;endArrow=block;rounded=0;edgeStyle=orthogonalEdgeStyle;curved=0;rounded=0;" parent="4OcTNK0Lde0b92UtZU0g-73" edge="1">
          <mxGeometry y="-105" relative="1" as="geometry">
            <mxPoint x="45" y="200" as="sourcePoint" />
            <Array as="points">
              <mxPoint x="25" y="200" />
              <mxPoint x="25" y="220" />
            </Array>
            <mxPoint x="45" y="220" as="targetPoint" />
            <mxPoint as="offset" />
          </mxGeometry>
        </mxCell>
        <mxCell id="4OcTNK0Lde0b92UtZU0g-75" value="" style="html=1;verticalAlign=bottom;endArrow=block;curved=0;rounded=0;jumpStyle=none;shadow=0;" parent="1" source="4OcTNK0Lde0b92UtZU0g-64" target="4OcTNK0Lde0b92UtZU0g-73" edge="1">
          <mxGeometry x="0.3264" y="5" width="80" relative="1" as="geometry">
            <mxPoint x="560" y="1460" as="sourcePoint" />
            <mxPoint x="640" y="1460" as="targetPoint" />
            <mxPoint as="offset" />
          </mxGeometry>
        </mxCell>
      </root>
    </mxGraphModel>
  </diagram>
</mxfile>
